<svg xmlns="http://www.w3.org/2000/svg" xmlns:xlink="http://www.w3.org/1999/xlink" width="174.953" height="63.902" viewBox="0 0 174.953 63.902">
  <defs>
    <clipPath id="clip-path">
      <rect id="Rectangle_211" data-name="Rectangle 211" width="174.953" height="63.902" fill="#f8fafd"/>
    </clipPath>
  </defs>
  <g id="Group_77" data-name="Group 77" transform="translate(0 0)">
    <g id="Group_44" data-name="Group 44" transform="translate(0 0)" clip-path="url(#clip-path)">
      <path id="Path_49" data-name="Path 49" d="M13.011,49.35q-.61,0-2.959-.157a10.289,10.289,0,0,1-5.376-2.553A12.492,12.492,0,0,1,.5,39.5,34.172,34.172,0,0,1,0,33.02q0-.34.023-2.756a64.979,64.979,0,0,1,.519-6.63,23.175,23.175,0,0,1,1.31-6.065A7.534,7.534,0,0,1,4.7,16.982a12.85,12.85,0,0,1,3.817.609q-.543,5.535-.813,8.652Q7.3,30.919,7.3,33.11a26.761,26.761,0,0,0,.53,5.252,10.076,10.076,0,0,0,2.135,4.573,6.231,6.231,0,0,0,4.45,2.169l.587.023a16.251,16.251,0,0,0,6.573-1.807,17.524,17.524,0,0,1-8.02-4.224,14.057,14.057,0,0,1-3.929-6.529,13.292,13.292,0,0,1-.452-3.41,16.03,16.03,0,0,1,.79-4.483,10.543,10.543,0,0,1,3.761-5.015,14.379,14.379,0,0,1,7.85-2.835L22.7,16.8a11.708,11.708,0,0,1,7.16,2.123,10.768,10.768,0,0,1,3.953,5.715,14.556,14.556,0,0,1,.655,4.314,22.086,22.086,0,0,1-.542,4.157,11.284,11.284,0,0,1-3.073,5.331A11.2,11.2,0,0,0,35.712,32.5a13.912,13.912,0,0,0,.678-4.291,22.144,22.144,0,0,0-.543-4.146,16.669,16.669,0,0,0-2.609-5.76,14.259,14.259,0,0,0-4.778-4.642,4.722,4.722,0,0,1,2.824-.948,9.266,9.266,0,0,1,2.745.632,10.845,10.845,0,0,1,4.166,3.4,19,19,0,0,1,3.592,6.81,15.926,15.926,0,0,1,.565,4.134A17.612,17.612,0,0,1,41.1,33.663a14.989,14.989,0,0,1-4.709,6.269,13.189,13.189,0,0,1-7.748,3.139,27.669,27.669,0,0,1-8.312,4.9,21.262,21.262,0,0,1-7.319,1.378m9.849-8.832a19.49,19.49,0,0,0,3.207-5.534A19.878,19.878,0,0,0,27.6,28.163V28.05a14.4,14.4,0,0,0-.881-4.89,7.272,7.272,0,0,0-2.6-3.647,2.922,2.922,0,0,0-1.671-.52,4.992,4.992,0,0,0-2.462.79,10.241,10.241,0,0,0-4.45,5.512,12.006,12.006,0,0,0-.5,3.389,15.8,15.8,0,0,0,.645,3.952,12.663,12.663,0,0,0,2.665,4.8,9.02,9.02,0,0,0,4.506,3.083" transform="translate(0 0.506)" fill="#f8fafd"/>
      <path id="Path_50" data-name="Path 50" d="M54.077,43.959a11.693,11.693,0,0,1-4.732-.869,9.342,9.342,0,0,1-3.307-2.383,10.082,10.082,0,0,1-2.62-6.313A9.724,9.724,0,0,1,45.2,28.317a9.323,9.323,0,0,1,5.376-3.647q3.478-.948,8.156.948A8,8,0,0,1,63.508,30.9a15.851,15.851,0,0,1-.078,7.714,40.151,40.151,0,0,1-2.87,8.131,57.163,57.163,0,0,1-3.6,6.562,13.752,13.752,0,0,1-2.269,2.982,8.78,8.78,0,0,1-1.784.191,12.308,12.308,0,0,1-1.74-.169c-.045-.016-.1-.03-.159-.045q-.406-.045-.858-.124a6.447,6.447,0,0,1-.744-.169l-1.287-.7a20.031,20.031,0,0,1,2.009-3.682q.586-.926,1.152-1.875c.2-.347.408-.708.632-1.084q.655-1.084,1.255-2.259a11.606,11.606,0,0,0,.913-2.416m1.537-3.93A7.505,7.505,0,0,0,57,36.279a13.082,13.082,0,0,0-.226-4.4,6.991,6.991,0,0,0-1.581-3.31,2.189,2.189,0,0,0-2.7-.463,3.851,3.851,0,0,0-1.649,2.372,9.77,9.77,0,0,0-.362,3.907,7.3,7.3,0,0,0,1.423,3.75,5.072,5.072,0,0,0,3.7,1.9" transform="translate(1.726 0.969)" fill="#f8fafd"/>
      <path id="Path_51" data-name="Path 51" d="M62.186,51.811q.858-1.761,2.777-6.4T68.669,36.2q1.783-4.564,2.19-6.1a2.564,2.564,0,0,1,2.159-1,8.538,8.538,0,0,1,2.913.451,7.794,7.794,0,0,1,2.225,1.073,137.469,137.469,0,0,1-4.766,13.2,61.243,61.243,0,0,1-4.654,9.5,6.5,6.5,0,0,1-3.342-.125,8.915,8.915,0,0,1-3.208-1.389m15.641-33.34a4.309,4.309,0,0,1,0,6.213,4.582,4.582,0,0,1-6.369,0,4.309,4.309,0,0,1,0-6.213,4.582,4.582,0,0,1,6.369,0" transform="translate(2.473 0.684)" fill="#f8fafd"/>
      <path id="Path_52" data-name="Path 52" d="M76.915,51.356q.859-1.761,2.778-6.4t3.7-9.205q1.784-4.564,2.191-6.1a2.561,2.561,0,0,1,2.158-1,8.544,8.544,0,0,1,2.914.451,7.777,7.777,0,0,1,2.223,1.073,136.632,136.632,0,0,1-4.766,13.2,61.186,61.186,0,0,1-4.652,9.5,6.5,6.5,0,0,1-3.343-.125,8.931,8.931,0,0,1-3.208-1.389" transform="translate(3.059 1.139)" fill="#f8fafd"/>
      <path id="Path_53" data-name="Path 53" d="M108.138,12.807a11.93,11.93,0,0,1-3.851-.757,11.408,11.408,0,0,1-4.235-2.79Q96.844,6.075,95.2,5.488a2.556,2.556,0,0,0-.9-.18,2.123,2.123,0,0,0-1.751,1.208A18.672,18.672,0,0,0,90.9,10.571l-.226.723a8.272,8.272,0,0,1-2.191.316,6.084,6.084,0,0,1-4.36-1.626A8.566,8.566,0,0,1,85.8,5.511a10.086,10.086,0,0,1,3.613-3.3A9.8,9.8,0,0,1,93.456,1.2a13.779,13.779,0,0,1,1.852.215,7.449,7.449,0,0,1,3.061,1.479A25.881,25.881,0,0,1,101.52,5.6q2.868,2.915,4.54,2.914a3.175,3.175,0,0,0,1.491-.408,6.372,6.372,0,0,0,2.259-2.54,27.644,27.644,0,0,0,1.49-3.445q.384-1.086.791-2.011A10,10,0,0,1,113.537,0a6.992,6.992,0,0,1,2.677.553,5.321,5.321,0,0,1,2.315,1.931,14.01,14.01,0,0,1-1.547,3.908,21.741,21.741,0,0,1-2.044,3.139,8.616,8.616,0,0,1-4.812,3.073,9.906,9.906,0,0,1-1.987.2M96.708,45.062a8.159,8.159,0,0,1-4.337-1.31,41.16,41.16,0,0,0,2.846-9.125,86.522,86.522,0,0,0,1.718-17.145q0-1.581-.069-3.027a4.714,4.714,0,0,1,2.3-.609q.136,0,.847.045a7.045,7.045,0,0,1,1.909.5,12.48,12.48,0,0,1,1.988.926,26.209,26.209,0,0,1,.361,4.834q0,.836-.09,3.433t-.757,7.307a61.971,61.971,0,0,1-1.751,8.47,12.529,12.529,0,0,1-2.484,5.184,6.181,6.181,0,0,1-2.485.519" transform="translate(3.345 0.001)" fill="#f8fafd"/>
      <path id="Path_54" data-name="Path 54" d="M110.833,62.863a19.271,19.271,0,0,1-7.769-2.089,10.142,10.142,0,0,1-4.856-5.681,11.408,11.408,0,0,1-.09-6.8,8.687,8.687,0,0,1,5.85-5.715,16.273,16.273,0,0,0,5.749-2.971A14.27,14.27,0,0,0,113,35.632a35.645,35.645,0,0,0,2.012-4.347l.63-1.536A13.188,13.188,0,0,1,116.8,27.4q2.077-3.545,7.454-3.547l.677.023a12.12,12.12,0,0,1,6.507,2.982,11.539,11.539,0,0,1,3.252,4.551,14.2,14.2,0,0,1,1.017,5.184,11.36,11.36,0,0,1-1.515,5.874,8.273,8.273,0,0,1-4.043,3.477,13.1,13.1,0,0,1-4.586.836,14.1,14.1,0,0,1-2.484-.226,10.515,10.515,0,0,1-6.438-3.749,6.733,6.733,0,0,0-.79-.9,17.448,17.448,0,0,1-3.942,2.79,54.291,54.291,0,0,1-6.788,2.948,10.049,10.049,0,0,0-4.178,2.349,3.675,3.675,0,0,0-.768,2.057,2.267,2.267,0,0,0,.429,1.332,7.482,7.482,0,0,0,4.382,3.06,22.351,22.351,0,0,0,6.054.8,45.981,45.981,0,0,0,7.929-.7,63.723,63.723,0,0,0,13.867-3.818,32.353,32.353,0,0,0,6.756-3.84q.292,1.92.325,2.632t.035.846a5.392,5.392,0,0,1-.408,2.146,8.09,8.09,0,0,1-3.31,2.914,34.016,34.016,0,0,1-5.092,2.27q-2.665.937-4.247,1.367a49.089,49.089,0,0,1-6.744,1.4,47.54,47.54,0,0,1-6.492.5q-1.4,0-2.825-.09m15.045-19.584a4.231,4.231,0,0,0,2.281-2.631,12.245,12.245,0,0,0,.746-4.3,12.939,12.939,0,0,0-1.265-5.693,7.051,7.051,0,0,0-3.456-3.41,4,4,0,0,0-.428-.158,7.373,7.373,0,0,1-.589,1.265,11.966,11.966,0,0,0-.994,2.168,17.6,17.6,0,0,0-.723,4.834,14.089,14.089,0,0,0,.113,1.807,10.592,10.592,0,0,0,1.5,4.653q1.1,1.56,2.2,1.559a2.188,2.188,0,0,0,.61-.09" transform="translate(3.883 0.949)" fill="#f8fafd"/>
      <path id="Path_55" data-name="Path 55" d="M147.945,41.421a1.456,1.456,0,0,1,1.05.428,1.5,1.5,0,0,1-1.05,2.553,13.721,13.721,0,0,1-4-.451,8.735,8.735,0,0,1-4.031-2.5,11.152,11.152,0,0,1-2.519-5.139,36.07,36.07,0,0,1-.5-7.183,80.93,80.93,0,0,1,.542-8.708,23.207,23.207,0,0,1,1.31-6.065,7.3,7.3,0,0,1,3.626-.542,18.407,18.407,0,0,1,3.037.565q-.541,5.557-.813,8.685t-.361,5.206a40.711,40.711,0,0,0,.226,7.794,9.541,9.541,0,0,0,1.378,4.121,2.63,2.63,0,0,0,2.1,1.232" transform="translate(5.444 0.548)" fill="#f8fafd"/>
      <path id="Path_56" data-name="Path 56" d="M147.08,44.1h-.022a1.493,1.493,0,0,1-1.05-2.553,1.456,1.456,0,0,1,1.05-.428A19.029,19.029,0,0,0,158,37.3a10.494,10.494,0,0,0,3.422-4.359,8.016,8.016,0,0,0,.52-5.105,4.26,4.26,0,0,0-2.643-2.778,9.479,9.479,0,0,0-4.969-.317.093.093,0,0,1-.069.023,21.28,21.28,0,0,1-3.274.384,2.81,2.81,0,0,1-1.92-.665,1.067,1.067,0,0,1-.271-1.423q.429-.778,2.575-1.208a24.671,24.671,0,0,1,7.1-.237,17.625,17.625,0,0,1,6.393,1.875,8.022,8.022,0,0,1,3.863,4.156q1.073,2.676-.508,6.607a12.83,12.83,0,0,1-3.986,4.845,22.55,22.55,0,0,1-6.788,3.558,26.307,26.307,0,0,1-8.7,1.423Z" transform="translate(5.788 0.854)" fill="#f8fafd"/>
    </g>
  </g>
</svg>
