<svg xmlns="http://www.w3.org/2000/svg" xmlns:xlink="http://www.w3.org/1999/xlink" width="63" height="60.328" viewBox="0 0 63 60.328">
  <defs>
    <clipPath id="clip-path">
      <rect id="Rectangle_202" data-name="Rectangle 202" width="62.999" height="60.328"/>
    </clipPath>
  </defs>
  <g id="Group_7" data-name="Group 7" transform="translate(0 -0.001)">
    <path id="Path_3" data-name="Path 3" d="M13.3,39.275V49.914L43.122,33.432V22.644Z" transform="translate(1.298 2.21)"/>
    <path id="Path_4" data-name="Path 4" d="M40.47,32.912V43.551l9.29-4.8V27.968Z" transform="translate(3.949 2.729)"/>
    <path id="Path_5" data-name="Path 5" d="M48.934,38.237V48.874l9.291-4.794V33.292Z" transform="translate(4.775 3.249)"/>
    <path id="Path_6" data-name="Path 6" d="M20.354,32.8l9.29-4.8V17.215l-9.29,4.945" transform="translate(1.986 1.68)"/>
    <path id="Path_7" data-name="Path 7" d="M11.89,27.489l9.29-4.8V11.906l-9.29,4.945" transform="translate(1.16 1.162)"/>
    <g id="Group_6" data-name="Group 6" transform="translate(0 0.001)">
      <g id="Group_5" data-name="Group 5" clip-path="url(#clip-path)">
        <path id="Path_8" data-name="Path 8" d="M5.6,21.381a11.994,11.994,0,0,1,7.449-4.256V9.182a16.035,16.035,0,0,0-9.29,4.945C-.754,19.188-.719,26.362,1.331,31.451,4.39,39.04,11.74,41.506,12.825,41.85a14.913,14.913,0,0,1-8.051-7.472c-.329-.73-3.321-7.642.826-13" transform="translate(0 0.895)"/>
        <rect id="Rectangle_200" data-name="Rectangle 200" width="0.871" height="20.114" transform="translate(30.759 2.489)"/>
        <rect id="Rectangle_201" data-name="Rectangle 201" width="0.871" height="25.16" transform="translate(34.077 2.489)"/>
        <path id="Path_9" data-name="Path 9" d="M41.2,4.1A4.1,4.1,0,1,1,37.1,0a4.1,4.1,0,0,1,4.1,4.1" transform="translate(3.22 -0.001)"/>
        <path id="Path_10" data-name="Path 10" d="M41.2,11.578a4.1,4.1,0,1,1-4.1-4.1,4.1,4.1,0,0,1,4.1,4.1" transform="translate(3.22 0.729)"/>
        <path id="Path_11" data-name="Path 11" d="M39.251,44.117a4.1,4.1,0,1,1-4.1-4.1,4.1,4.1,0,0,1,4.1,4.1" transform="translate(3.03 3.904)"/>
        <path id="Path_12" data-name="Path 12" d="M39.251,51.592a4.1,4.1,0,1,1-4.1-4.1,4.1,4.1,0,0,1,4.1,4.1" transform="translate(3.03 4.634)"/>
        <path id="Path_13" data-name="Path 13" d="M49.169,51.592a4.1,4.1,0,1,1-4.1-4.1,4.1,4.1,0,0,1,4.1,4.1" transform="translate(3.997 4.634)"/>
      </g>
    </g>
  </g>
</svg>
